<svg width="90" height="90" viewBox="0 0 90 90" fill="none" xmlns="http://www.w3.org/2000/svg">
<path d="M90 45.2787C90 20.2651 69.8428 0 45 0C20.1403 0 0 20.2651 0 45.2787C0 67.8728 16.4503 86.6069 37.9688 90V58.37H26.5416V45.2816H37.9688V35.3004C37.9688 23.9553 44.6766 17.6898 54.9591 17.6898C59.8838 17.6898 65.0391 18.5728 65.0391 18.5728V29.7142H59.355C53.775 29.7142 52.0312 33.2091 52.0312 36.789V45.2787H64.5103L62.505 58.3671H52.0312V89.9972C73.5328 86.6041 90 67.87 90 45.2759V45.2787Z" fill="#3B6CAF"/>
</svg>
