<svg width="90" height="90" viewBox="0 0 90 90" fill="none" xmlns="http://www.w3.org/2000/svg">
<path d="M45 0C20.1496 0 0 20.1496 0 45C0 69.8504 20.1496 90 45 90C69.8504 90 90 69.8504 90 45C90 20.1496 69.8504 0 45 0ZM61.7746 63.6429C57.6964 67.3996 52.1317 69.6094 45.4922 69.6094C35.8795 69.6094 27.5625 64.0949 23.5145 56.0591C21.8471 52.7344 20.8929 48.9777 20.8929 45C20.8929 41.0223 21.8471 37.2656 23.5145 33.9408C27.5625 25.8951 35.8795 20.3806 45.4922 20.3806C52.1217 20.3806 57.6864 22.8214 61.9554 26.7891L54.904 33.8504C52.3527 31.4096 49.1083 30.1741 45.5022 30.1741C39.0938 30.1741 33.6696 34.5033 31.731 40.3192C31.2388 41.7958 30.9576 43.3728 30.9576 45C30.9576 46.6272 31.2388 48.2042 31.731 49.6808C33.6696 55.4967 39.0938 59.8259 45.4922 59.8259C48.8069 59.8259 51.6194 58.952 53.8192 57.4754C56.4308 55.7277 58.1585 53.1261 58.731 50.0424H45.4922V40.5201H68.6652C68.9565 42.1373 69.1071 43.8147 69.1071 45.5525C69.1071 53.0558 66.4252 59.3538 61.7746 63.6429Z" fill="#FF4131"/>
</svg>
