<svg width="17" height="27" viewBox="0 0 17 27" fill="none" xmlns="http://www.w3.org/2000/svg">
<path fill-rule="evenodd" clip-rule="evenodd" d="M10.2297 0H6.17131V2.02687H3.5014C3.30322 2.02687 3.10503 2.03785 2.90685 2.0598C2.06964 2.19212 1.37571 2.52781 0.825655 3.06747C0.275023 3.60712 0 4.2294 0 4.93373V13.1268C0 13.281 0.0109749 13.4353 0.0329309 13.589C0.120755 14.0073 0.307957 14.3933 0.59454 14.7452C1.29886 15.6043 2.26782 16.0336 3.5014 16.0336H11.1987V20.2942H4.85631V17.6514H0V22.2431C0 23.0578 0.340894 23.746 1.02384 24.3076C1.70621 24.8692 2.53187 25.15 3.5014 25.15H6.17131V26.9937H10.2297V25.15H12.553C13.522 25.15 14.3476 24.8692 15.0306 24.3076C15.713 23.746 16.0544 23.0584 16.0544 22.2431V13.9513C16.0544 13.819 16.0435 13.6872 16.0215 13.5549C15.9556 13.1146 15.7679 12.7079 15.4599 12.3329C14.9757 11.7383 14.3147 11.342 13.4781 11.1438H4.85631V6.88261H6.17131V6.89013H10.2297V6.88261H11.1987V8.53451H16.0544V4.93373C16.0544 4.2294 15.7788 3.60712 15.2288 3.06747C14.6781 2.52781 13.9952 2.19212 13.1805 2.0598C12.9823 2.03843 12.7732 2.02687 12.553 2.02687H10.2297V0Z" fill="#2AFAA5"/>
</svg>
