<svg width="49" height="49" viewBox="0 0 49 49" fill="none" xmlns="http://www.w3.org/2000/svg">
<circle cx="24.5" cy="24.5" r="24.5" fill="#FFA008"/>
<path d="M22.5789 24V19.8H27.8947C29.6302 19.8 31.3005 20.5092 32.5367 21.7814C33.7738 23.0546 34.4737 24.7874 34.4737 26.6C34.4737 28.4126 33.7738 30.1454 32.5367 31.4186C31.3005 32.6908 29.6302 33.4 27.8947 33.4H16.5263H15.5263V34.4V37V38H16.5263H27.8947C30.8495 38 33.6772 36.7917 35.7574 34.6508C37.8368 32.5108 39 29.6143 39 26.6C39 23.5857 37.8368 20.6892 35.7574 18.5492C33.6772 16.4083 30.8495 15.2 27.8947 15.2H22.5789V11V8.82496L20.9279 10.2409L13.349 16.7409L12.4639 17.5L13.349 18.2591L20.9279 24.7591L22.5789 26.175V24Z" fill="white" stroke="white" stroke-width="2"/>
</svg>
