<svg width="31" height="33" viewBox="0 0 31 33" fill="none" xmlns="http://www.w3.org/2000/svg">
<path d="M9.78947 9.9V16.5L0 8.25L9.78947 0V6.6H17.9474C21.4091 6.6 24.7291 7.99071 27.177 10.4662C29.6248 12.9417 31 16.2991 31 19.8C31 23.3009 29.6248 26.6583 27.177 29.1338C24.7291 31.6093 21.4091 33 17.9474 33H3.26316V29.7H17.9474C20.5437 29.7 23.0337 28.657 24.8696 26.8004C26.7055 24.9437 27.7368 22.4256 27.7368 19.8C27.7368 17.1744 26.7055 14.6563 24.8696 12.7996C23.0337 10.943 20.5437 9.9 17.9474 9.9H9.78947Z" fill="white"/>
</svg>
